<?xml version="1.0" standalone="no"?>
<!DOCTYPE svg PUBLIC "-//W3C//DTD SVG 20010904//EN"
 "http://www.w3.org/TR/2001/REC-SVG-20010904/DTD/svg10.dtd">
<svg version="1.0" xmlns="http://www.w3.org/2000/svg"
 width="100.000000pt" height="100.000000pt" viewBox="0 0 100.000000 100.000000"
 preserveAspectRatio="xMidYMid meet">
<metadata>
Created by potrace 1.14, written by Peter Selinger 2001-2017
</metadata>
<g transform="translate(0.000000,100.000000) scale(0.100000,-0.100000)"
fill="#000000" stroke="none">
<path d="M387 945 c-233 -63 -376 -285 -338 -523 26 -161 153 -308 309 -358
63 -21 175 -27 237 -13 301 67 455 407 304 674 -52 93 -158 181 -253 211 -66
21 -198 25 -259 9z m190 -215 c77 -46 76 -136 -3 -229 -14 -17 -32 -50 -39
-74 -10 -34 -16 -41 -36 -41 -21 0 -24 4 -23 40 0 30 11 54 47 104 58 79 64
126 20 151 -40 23 -87 8 -103 -31 -12 -30 -33 -37 -59 -21 -11 7 -11 15 5 47
33 69 125 95 191 54z m-46 -407 c0 -5 2 -16 4 -27 6 -30 -4 -42 -35 -44 -29
-2 -30 -1 -30 38 0 38 2 40 30 40 17 0 30 -3 31 -7z"/>
</g>
</svg>
